<?xml version="1.0" standalone="no"?>
<!DOCTYPE svg PUBLIC "-//W3C//DTD SVG 20010904//EN"
 "http://www.w3.org/TR/2001/REC-SVG-20010904/DTD/svg10.dtd">
<svg version="1.0" xmlns="http://www.w3.org/2000/svg"
 width="1080.000000pt" height="1080.000000pt" viewBox="0 0 1080.000000 1080.000000"
 preserveAspectRatio="xMidYMid meet">
<metadata>
Created by potrace 1.14, written by Peter Selinger 2001-2017
</metadata>
<g transform="translate(0.000000,1080.000000) scale(0.100000,-0.100000)"
fill="#000000" stroke="none">
<path d="M0 5400 l0 -5400 5400 0 5400 0 0 5400 0 5400 -5400 0 -5400 0 0
-5400z m6175 4309 c24 -6 62 -27 84 -46 55 -47 71 -103 71 -255 l0 -118 64 0
64 0 4 104 c3 97 5 107 33 147 17 23 50 53 74 66 38 20 58 23 150 23 81 0 115
-5 147 -19 58 -26 102 -84 116 -153 l12 -57 27 15 c51 26 161 46 215 39 103
-13 209 -84 274 -184 27 -43 35 -49 75 -54 123 -17 227 -132 265 -294 10 -44
21 -61 76 -112 l64 -59 0 -909 0 -909 26 -51 c24 -49 142 -173 164 -173 6 0
10 139 10 370 l0 370 323 161 c319 160 536 275 590 311 23 17 27 26 27 70 0
42 -4 54 -28 76 -16 15 -146 82 -288 149 -417 196 -618 295 -626 307 -5 6 -7
85 -5 176 l2 165 35 -3 c122 -11 208 -87 246 -220 18 -59 -21 -37 359 -212
356 -164 384 -182 434 -289 23 -49 26 -68 25 -156 -1 -81 -5 -109 -22 -145
-27 -55 -71 -104 -128 -140 l-43 -27 87 1 c138 0 224 -50 282 -166 25 -52 30
-73 30 -136 0 -79 -17 -161 -50 -235 -36 -81 -22 -77 -295 -77 l-244 0 -3 33
-3 32 -140 0 -140 0 -3 -31 c-3 -26 -10 -35 -43 -49 -50 -23 -96 -75 -104
-117 -3 -18 -5 -204 -3 -414 l3 -381 27 -35 c15 -20 47 -45 71 -57 42 -21 55
-21 610 -21 l566 0 24 -32 c39 -54 49 -93 51 -196 l1 -97 -122 -3 c-68 -1
-123 -6 -123 -11 0 -5 13 -37 30 -72 48 -102 71 -210 72 -324 0 -205 -58 -358
-184 -483 -90 -89 -136 -120 -249 -167 -49 -20 -89 -40 -89 -44 0 -3 24 -21
53 -38 64 -39 157 -134 187 -193 12 -24 31 -69 42 -99 16 -47 34 -71 112 -146
105 -101 142 -161 154 -255 23 -166 -38 -310 -213 -500 -124 -135 -191 -230
-213 -299 -13 -43 -17 -94 -17 -221 0 -185 -11 -237 -66 -303 -84 -102 -224
-104 -275 -5 -34 65 6 137 104 187 80 41 90 87 37 165 -24 35 -25 44 -25 189
l0 152 258 255 c157 155 264 268 272 288 10 26 10 38 -1 64 -7 18 -121 141
-254 274 -208 210 -246 244 -282 254 -58 15 -109 0 -170 -49 -60 -47 -429
-428 -456 -471 -39 -61 -22 -87 231 -343 l227 -229 3 -135 c2 -75 1 -151 -3
-170 l-6 -33 -63 0 c-34 0 -65 -2 -68 -5 -3 -3 4 -36 14 -73 24 -82 29 -252 9
-332 -21 -89 -94 -231 -148 -288 -27 -29 -54 -52 -60 -52 -5 0 -38 31 -72 70
l-62 69 42 53 c156 196 142 474 -31 648 -100 100 -259 153 -389 131 -36 -6
-76 -14 -88 -17 -22 -6 -22 -4 -25 85 l-3 91 -95 -46 c-80 -39 -109 -61 -181
-133 -124 -125 -177 -228 -199 -391 -26 -193 37 -377 180 -520 147 -147 330
-208 542 -181 55 7 102 10 105 7 9 -9 -34 -92 -67 -130 -19 -21 -58 -51 -87
-68 -29 -16 -53 -34 -53 -39 0 -6 7 -24 16 -41 22 -42 15 -138 -12 -176 -27
-37 -99 -72 -149 -72 -58 0 -135 42 -212 114 -64 59 -123 145 -123 178 0 24
-13 29 -59 22 l-41 -7 0 -153 c0 -202 -17 -261 -97 -334 -59 -54 -124 -80
-200 -80 -54 0 -78 12 -98 49 -14 28 -13 30 30 85 113 146 111 306 -6 383 -66
44 -161 41 -230 -8 -25 -17 -26 -17 -84 12 -70 35 -130 38 -192 8 -156 -75
-143 -301 26 -469 38 -38 89 -76 119 -90 28 -14 52 -28 52 -32 0 -16 -86 -69
-134 -83 -53 -14 -147 -20 -277 -17 l-77 2 5 43 c7 56 -10 115 -50 173 -43 65
-116 103 -215 111 l-72 6 0 46 c0 165 -92 266 -254 278 l-73 6 -6 77 c-9 130
-59 208 -167 259 -74 34 -210 37 -281 5 -107 -50 -160 -130 -169 -259 l-5 -80
-65 -6 c-90 -8 -130 -23 -173 -67 -47 -48 -63 -90 -72 -183 l-7 -76 -75 -7
c-88 -7 -145 -30 -191 -75 -50 -51 -65 -88 -71 -176 l-6 -80 -149 -3 c-113 -2
-151 1 -158 10 -4 7 -8 47 -8 88 0 41 -3 98 -6 127 l-7 52 -48 -24 c-93 -48
-193 -69 -319 -68 -181 1 -329 49 -461 150 -37 28 -73 54 -80 59 -8 5 -80 14
-161 20 -125 10 -156 15 -202 38 -119 58 -186 159 -186 281 0 39 4 86 10 105
12 41 2 50 -56 50 -60 0 -187 35 -257 71 -163 82 -313 246 -384 418 -16 41
-23 76 -23 129 0 71 -1 73 -32 92 -18 11 -50 20 -70 20 -33 0 -41 -5 -63 -40
-13 -21 -34 -44 -45 -50 -39 -21 -115 -23 -167 -6 -155 52 -231 233 -159 380
31 64 70 99 145 134 71 32 161 28 240 -12 62 -32 61 -32 105 51 l31 58 128 3
c103 2 127 0 127 -11 0 -16 167 65 188 91 6 9 12 28 12 43 0 20 10 36 35 54
52 41 116 55 252 58 68 1 123 4 123 7 0 3 -15 14 -33 24 -38 22 -157 111 -207
155 -19 17 -37 31 -40 31 -3 1 -57 2 -120 3 -121 2 -135 6 -188 56 -12 12 -22
26 -22 30 0 5 43 28 95 52 87 40 95 46 95 71 0 25 -9 32 -82 69 l-83 41 -166
-1 -166 -2 -85 94 c-75 82 -168 206 -168 221 0 4 123 6 274 6 201 0 275 -3
278 -12 3 -7 40 8 102 41 89 48 97 55 94 79 -3 23 -18 35 -93 74 -56 29 -94
43 -100 37 -15 -15 -668 -12 -687 4 -9 6 -32 37 -51 67 -20 30 -72 104 -116
165 -43 60 -77 113 -75 117 3 5 219 8 481 8 464 0 478 1 520 21 29 14 52 35
68 63 l25 43 0 339 c0 332 -1 340 -23 378 -12 22 -38 49 -57 60 -34 20 -51 21
-572 24 l-538 3 0 214 0 215 183 2 182 3 3 68 3 67 -175 0 c-127 0 -177 3
-182 12 -5 7 -8 47 -9 90 l0 78 225 2 225 3 3 73 3 72 -208 0 c-114 0 -214 4
-222 9 -12 8 -13 16 -2 53 17 56 45 94 84 115 27 15 62 18 224 18 106 0 193 1
193 3 0 2 -39 52 -86 110 -127 158 -237 393 -237 506 0 199 248 262 340 87 44
-84 23 -187 -54 -257 l-33 -31 49 -65 c102 -134 263 -244 416 -283 300 -78
646 47 832 299 39 53 42 61 29 75 -28 31 -56 106 -56 152 0 67 35 126 100 170
30 20 57 45 61 55 13 33 10 199 -5 276 -47 245 -195 456 -470 668 -116 89
-134 110 -143 163 -8 52 20 100 80 140 78 51 297 170 303 164 3 -2 -3 -24 -13
-48 -14 -34 -18 -70 -18 -154 1 -97 4 -117 27 -167 71 -153 227 -246 395 -236
58 4 88 13 147 42 165 81 254 242 232 419 l-7 55 -82 -5 c-71 -5 -89 -2 -130
17 -58 27 -124 100 -133 146 -15 81 27 158 108 198 32 16 91 32 151 40 54 9
145 25 204 37 194 40 322 14 387 -78 28 -40 28 -43 30 -189 2 -132 5 -157 27
-215 40 -103 76 -157 163 -244 142 -142 301 -202 511 -192 184 8 311 64 441
195 l72 72 32 -50 c40 -62 104 -113 173 -137 46 -16 90 -18 407 -18 344 0 357
1 411 23 151 60 209 174 209 408 l0 102 -71 4 c-39 2 -73 1 -75 -1 -2 -2 -4
-52 -4 -110 0 -126 -11 -170 -52 -217 -61 -69 -58 -69 -413 -72 -224 -2 -332
0 -362 9 -59 16 -116 68 -142 130 -21 48 -23 71 -28 333 -6 304 -3 330 44 387
26 30 67 56 113 70 41 12 645 11 695 -2z m-1474 -72 c44 -34 45 -98 3 -140
-13 -13 -50 -31 -82 -40 -69 -19 -149 -84 -178 -144 -10 -21 -20 -75 -24 -122
-6 -75 -10 -87 -34 -108 -31 -27 -81 -30 -113 -8 -71 50 -47 267 42 384 57 74
172 156 255 182 39 12 113 10 131 -4z m3406 -493 c60 -39 67 -132 14 -185 -58
-58 -152 -44 -185 26 -55 116 66 229 171 159z m-6233 -492 c54 -32 71 -66 71
-142 0 -54 -4 -74 -21 -97 -32 -42 -78 -65 -133 -65 -96 0 -153 56 -159 157
-5 74 21 118 88 153 51 26 103 24 154 -6z m663 -306 c129 -134 188 -274 187
-451 0 -116 -28 -208 -92 -306 -102 -156 -256 -246 -430 -252 l-77 -2 -3 146
-3 146 68 5 c109 8 187 57 238 150 26 46 30 63 30 128 0 61 -5 84 -27 125 -35
66 -80 108 -150 139 -32 14 -58 31 -58 37 0 15 209 219 224 219 6 0 48 -38 93
-84z m-255 -296 c45 -13 80 -54 76 -89 -2 -21 -9 -27 -34 -29 -25 -2 -35 3
-49 25 -10 15 -36 45 -58 66 l-40 37 34 0 c19 0 51 -5 71 -10z m-1033 -825
c37 -19 65 -77 57 -120 -21 -108 -159 -136 -216 -43 -64 105 48 221 159 163z
m7710 -462 c98 -35 171 -139 171 -243 -1 -96 -54 -181 -144 -228 -47 -24 -63
-27 -190 -30 -109 -3 -140 -1 -147 10 -5 7 -9 124 -9 260 0 188 3 247 13 251
28 10 264 -5 306 -20z m-7090 -1338 c60 -30 54 -111 -10 -132 -13 -5 -149 -8
-302 -7 -275 2 -279 2 -303 25 -41 39 -28 102 26 122 8 3 138 6 288 6 221 1
278 -2 301 -14z m7941 -830 c23 -16 55 -52 71 -80 85 -148 -17 -334 -184 -335
-40 0 -53 5 -78 29 -28 28 -36 61 -23 95 3 9 30 23 59 32 63 18 79 34 79 79 0
49 -28 75 -79 75 -46 0 -60 10 -70 52 -6 22 -1 33 24 59 30 30 35 31 95 27 50
-3 73 -10 106 -33z m-4176 -3127 c3 -50 6 -140 6 -200 l0 -108 -45 0 c-52 0
-109 21 -144 53 -31 28 -61 94 -61 133 0 28 5 34 48 51 68 30 128 77 154 123
13 22 26 40 29 40 3 0 9 -41 13 -92z"/>
<path d="M3705 9301 c-36 -7 -57 -45 -49 -86 12 -62 85 -86 138 -44 20 16 26
29 26 58 0 20 -6 44 -12 53 -16 19 -62 28 -103 19z"/>
<path d="M7144 9251 c-79 -36 -114 -135 -75 -213 29 -59 63 -81 131 -86 45 -3
61 0 89 20 49 33 72 69 78 120 14 119 -114 210 -223 159z"/>
<path d="M6752 8969 c-92 -46 -105 -92 -100 -370 l3 -216 28 -42 c66 -100 175
-110 235 -21 31 45 25 79 -26 164 -66 110 -69 226 -6 287 65 63 66 145 3 189
-44 32 -87 35 -137 9z"/>
<path d="M7542 8964 c-54 -38 -66 -111 -27 -165 13 -19 32 -45 42 -58 12 -17
17 -43 17 -100 0 -70 -4 -82 -42 -152 -74 -135 -44 -229 74 -229 67 0 133 55
154 128 5 20 10 129 10 241 0 187 -2 208 -21 248 -31 65 -83 103 -139 103 -25
0 -56 -7 -68 -16z"/>
<path d="M7145 8776 c-86 -39 -119 -141 -75 -231 51 -105 199 -112 271 -12 53
73 35 172 -43 230 -34 25 -113 32 -153 13z"/>
<path d="M3640 8683 c0 -105 -1 -104 99 -101 l86 3 3 78 3 77 -96 0 -95 0 0
-57z"/>
<path d="M4098 8473 c-2 -5 -2 -50 0 -100 l3 -93 32 17 c55 28 117 73 117 86
0 12 -43 44 -105 79 -34 19 -42 21 -47 11z"/>
<path d="M3300 8351 c-6 -12 -10 -111 -10 -251 0 -140 4 -239 10 -251 21 -39
32 -33 393 205 97 64 177 121 177 125 0 18 -482 191 -532 191 -17 0 -31 -7
-38 -19z"/>
<path d="M7144 8281 c-79 -37 -115 -140 -75 -218 45 -89 146 -116 228 -61 161
106 22 361 -153 279z"/>
<path d="M5230 8204 c-19 -2 -82 -9 -140 -15 -724 -77 -1440 -486 -1884 -1076
-365 -485 -550 -1038 -572 -1713 -38 -1132 485 -2055 1449 -2555 269 -140 548
-232 857 -286 178 -30 576 -38 780 -15 463 53 901 210 1260 451 179 121 277
201 425 349 226 226 354 403 485 671 142 292 202 486 257 835 23 145 26 703 5
870 -58 462 -200 855 -445 1229 -208 319 -455 568 -772 781 -183 122 -284 178
-490 267 -320 139 -605 199 -990 207 -104 2 -206 2 -225 0z m1479 -576 c148
-72 216 -254 148 -400 -31 -68 -93 -133 -156 -161 -67 -31 -179 -30 -244 2
-63 31 -114 83 -146 151 -22 46 -26 69 -26 140 0 76 3 90 29 135 46 78 119
134 201 156 47 13 144 1 194 -23z m-902 1 c64 -24 115 -95 115 -163 -1 -112
-87 -193 -198 -184 -100 8 -163 76 -171 183 -5 63 18 104 84 145 51 32 116 40
170 19z m726 -750 c133 -88 324 -282 422 -429 175 -263 255 -486 286 -796 22
-227 -30 -530 -119 -697 -18 -33 -28 -44 -34 -35 -6 11 -10 10 -16 0 -11 -17
-62 -5 -62 13 0 18 -42 15 -58 -5 -17 -19 -15 -13 27 91 113 281 119 634 15
949 -47 144 -150 348 -227 451 -107 143 -176 211 -403 399 -17 14 -24 21 -17
16 7 -5 13 -5 13 -1 0 3 12 -3 26 -14 35 -28 50 -27 24 1 -37 40 -21 54 58 51
6 -1 12 3 12 8 0 5 -5 9 -11 9 -5 0 -7 5 -4 10 9 15 18 13 68 -21z m-948 -442
c382 -89 679 -359 813 -737 55 -157 67 -235 67 -450 0 -212 -16 -319 -72 -474
-122 -339 -399 -611 -718 -704 -126 -37 -210 -42 -731 -42 l-504 0 0 1208 c0
665 3 1211 6 1215 3 3 245 4 537 3 452 -2 542 -5 602 -19z m1341 -1564 c-8
-15 -15 -25 -16 -21 0 12 23 58 27 54 3 -2 -2 -17 -11 -33z"/>
<path d="M4937 5918 c-15 -12 -16 -71 -18 -672 -1 -551 1 -660 12 -667 8 -6
119 -8 259 -6 228 3 250 5 315 27 93 32 208 112 268 185 57 70 119 193 144
285 13 47 18 101 17 195 0 115 -3 139 -27 209 -88 252 -277 415 -520 446 -111
14 -430 13 -450 -2z"/>
<path d="M7490 8051 l0 -70 43 -6 c23 -3 56 -2 72 3 29 8 30 10 30 73 l0 64
-72 3 -73 3 0 -70z"/>
<path d="M9123 7445 c-33 -33 -35 -39 -30 -81 10 -89 92 -132 167 -87 74 43
69 156 -8 192 -47 22 -92 13 -129 -24z"/>
<path d="M8583 7404 l-123 -66 0 -39 0 -39 200 0 c158 0 200 3 200 13 0 31
-121 197 -143 197 -7 -1 -67 -30 -134 -66z"/>
<path d="M1783 6743 c-19 -7 -19 -803 0 -803 19 0 81 45 190 137 54 46 103 83
110 83 24 0 137 -60 192 -101 31 -23 59 -39 63 -35 4 4 9 103 12 219 l5 212
53 3 52 3 0 120 c0 65 1 122 3 127 1 4 -19 8 -46 10 -44 3 -50 0 -100 -46 -85
-80 -91 -82 -192 -82 l-91 0 -59 51 c-121 104 -150 119 -192 102z"/>
<path d="M8633 5699 c-12 -6 -27 -24 -33 -40 -10 -24 -9 -34 7 -61 19 -32 21
-33 96 -36 l77 -3 -2 -272 -3 -272 -70 -3 c-73 -3 -92 -12 -106 -50 -13 -33
13 -90 45 -98 14 -3 124 -4 244 -2 l218 3 76 37 c55 28 92 55 136 102 82 88
106 150 107 277 0 90 -2 99 -37 170 -60 121 -153 201 -273 235 -75 20 -447 31
-482 13z"/>
<path d="M8613 4645 c-33 -33 -35 -39 -31 -86 6 -56 27 -84 73 -97 43 -12 89
3 119 39 60 70 7 179 -87 179 -31 0 -46 -7 -74 -35z"/>
<path d="M8086 3629 c-34 -27 -36 -77 -3 -107 29 -28 57 -28 91 -1 34 27 36
79 4 109 -28 26 -58 26 -92 -1z"/>
<path d="M2515 3139 c-121 -15 -249 -85 -318 -174 -46 -58 -86 -154 -99 -238
-45 -290 176 -547 471 -547 200 0 365 101 447 275 46 96 57 212 30 322 -59
241 -284 394 -531 362z"/>
<path d="M3380 2919 c-1 -30 -2 -130 -3 -222 -2 -140 0 -169 13 -177 18 -11
520 -14 520 -2 0 4 -44 35 -98 69 -129 82 -262 194 -341 288 -92 108 -91 107
-91 44z"/>
<path d="M1533 2945 c-36 -15 -53 -41 -53 -83 0 -34 32 -80 65 -92 32 -12 91
6 110 33 54 77 -34 180 -122 142z"/>
<path d="M4352 2093 c3 -242 4 -258 21 -257 19 2 466 265 467 275 0 3 -51 30
-112 59 -62 30 -166 82 -231 117 -66 35 -125 63 -133 63 -12 0 -14 -40 -12
-257z"/>
<path d="M6321 2294 c-52 -43 -54 -124 -4 -170 l26 -24 454 0 455 0 34 34 c38
38 44 77 19 126 -32 62 -16 60 -506 60 l-447 0 -31 -26z"/>
<path d="M3550 2272 c-123 -33 -217 -110 -268 -220 -24 -51 -27 -69 -27 -167
0 -100 3 -115 27 -166 173 -352 706 -276 769 110 44 276 -228 517 -501 443z
m220 -206 c22 -14 52 -45 67 -68 24 -35 28 -52 28 -108 0 -91 -36 -152 -115
-193 -47 -25 -63 -28 -112 -24 -33 3 -74 15 -98 28 -75 43 -122 146 -106 234
9 48 63 114 116 143 62 33 161 28 220 -12z"/>
<path d="M5830 2111 c0 -54 3 -107 7 -116 3 -10 42 -44 86 -77 66 -49 82 -57
89 -44 5 8 7 82 6 163 l-3 148 -70 6 c-38 3 -80 9 -92 13 -23 7 -23 7 -23 -93z"/>
<path d="M2818 1964 c-57 -31 -80 -130 -41 -182 32 -44 84 -65 130 -53 80 22
120 100 90 174 -28 67 -115 96 -179 61z"/>
<path d="M8800 6520 l0 -100 53 0 c45 0 57 4 80 28 35 37 43 81 23 120 -21 41
-44 52 -105 52 l-51 0 0 -100z"/>
</g>
</svg>
